<svg width="27" height="27" viewBox="0 0 27 27" fill="none" xmlns="http://www.w3.org/2000/svg">
<path d="M10.6875 13.5C13.1693 13.5 15.1875 11.4818 15.1875 9C15.1875 6.51825 13.1693 4.5 10.6875 4.5C8.20575 4.5 6.1875 6.51825 6.1875 9C6.1875 11.4818 8.20575 13.5 10.6875 13.5ZM12.375 14.625H9C5.27737 14.625 2.25 17.6524 2.25 21.375V22.5H19.125V21.375C19.125 17.6524 16.0976 14.625 12.375 14.625Z" fill="#333333"/>
<path d="M18.6796 12.4295C19.3648 11.2618 19.6607 9.90643 19.5245 8.55945C19.3231 6.55245 18.2026 4.77833 16.3711 3.56445L15.128 5.4387C16.3869 6.27345 17.153 7.46258 17.2858 8.78445C17.347 9.39881 17.2705 10.0191 17.0619 10.6002C16.8533 11.1813 16.5178 11.7086 16.0798 12.1437L14.7388 13.4847L16.559 14.0191C21.32 15.4141 21.3751 20.2021 21.3751 20.2505H23.6251C23.6251 18.2378 22.5496 14.3048 18.6796 12.4295Z" fill="#333333"/>
</svg>
