<svg width="27" height="27" viewBox="0 0 27 27" fill="none" xmlns="http://www.w3.org/2000/svg">
<path d="M24.1877 4.50009H21.1877V6.75009C21.1877 6.96677 21.145 7.18133 21.0621 7.38151C20.9792 7.5817 20.8576 7.7636 20.7044 7.91681C20.5512 8.07003 20.3693 8.19157 20.1691 8.27449C19.9689 8.35741 19.7544 8.40009 19.5377 8.40009C19.321 8.40009 19.1065 8.35741 18.9063 8.27449C18.7061 8.19157 18.5242 8.07003 18.371 7.91681C18.2178 7.7636 18.0962 7.5817 18.0133 7.38151C17.9304 7.18133 17.8877 6.96677 17.8877 6.75009V4.50009H9.15019V6.75009C9.15019 7.18769 8.97635 7.60738 8.66692 7.91681C8.35748 8.22625 7.9378 8.40009 7.50019 8.40009C7.06259 8.40009 6.6429 8.22625 6.33347 7.91681C6.02403 7.60738 5.85019 7.18769 5.85019 6.75009V4.50009H2.85019C2.67171 4.49806 2.49463 4.53184 2.32943 4.59943C2.16423 4.66703 2.01427 4.76707 1.8884 4.89363C1.76254 5.02019 1.66333 5.17071 1.59665 5.33628C1.52997 5.50186 1.49717 5.67912 1.50019 5.85759V22.6426C1.49721 22.8179 1.5288 22.9921 1.59315 23.1552C1.6575 23.3183 1.75336 23.4672 1.87524 23.5932C1.99712 23.7193 2.14264 23.8201 2.30349 23.8899C2.46434 23.9597 2.63737 23.9972 2.81269 24.0001H24.1877C24.363 23.9972 24.536 23.9597 24.6969 23.8899C24.8577 23.8201 25.0033 23.7193 25.1251 23.5932C25.247 23.4672 25.3429 23.3183 25.4072 23.1552C25.4716 22.9921 25.5032 22.8179 25.5002 22.6426V5.85759C25.5032 5.68227 25.4716 5.50807 25.4072 5.34496C25.3429 5.18185 25.247 5.03301 25.1251 4.90695C25.0033 4.78089 24.8577 4.68008 24.6969 4.61027C24.536 4.54046 24.363 4.50302 24.1877 4.50009ZM7.50019 19.5001H6.00019V18.0001H7.50019V19.5001ZM7.50019 15.7501H6.00019V14.2501H7.50019V15.7501ZM7.50019 12.0001H6.00019V10.5001H7.50019V12.0001ZM12.0002 19.5001H10.5002V18.0001H12.0002V19.5001ZM12.0002 15.7501H10.5002V14.2501H12.0002V15.7501ZM12.0002 12.0001H10.5002V10.5001H12.0002V12.0001ZM16.5002 19.5001H15.0002V18.0001H16.5002V19.5001ZM16.5002 15.7501H15.0002V14.2501H16.5002V15.7501ZM16.5002 12.0001H15.0002V10.5001H16.5002V12.0001ZM21.0002 19.5001H19.5002V18.0001H21.0002V19.5001ZM21.0002 15.7501H19.5002V14.2501H21.0002V15.7501ZM21.0002 12.0001H19.5002V10.5001H21.0002V12.0001Z" fill="#333333"/>
<path d="M7.5 7.5C7.69891 7.5 7.88968 7.42098 8.03033 7.28033C8.17098 7.13968 8.25 6.94891 8.25 6.75V2.25C8.25 2.05109 8.17098 1.86032 8.03033 1.71967C7.88968 1.57902 7.69891 1.5 7.5 1.5C7.30109 1.5 7.11032 1.57902 6.96967 1.71967C6.82902 1.86032 6.75 2.05109 6.75 2.25V6.75C6.75 6.94891 6.82902 7.13968 6.96967 7.28033C7.11032 7.42098 7.30109 7.5 7.5 7.5Z" fill="#333333"/>
<path d="M19.5 7.5C19.6989 7.5 19.8897 7.42098 20.0303 7.28033C20.171 7.13968 20.25 6.94891 20.25 6.75V2.25C20.25 2.05109 20.171 1.86032 20.0303 1.71967C19.8897 1.57902 19.6989 1.5 19.5 1.5C19.3011 1.5 19.1103 1.57902 18.9697 1.71967C18.829 1.86032 18.75 2.05109 18.75 2.25V6.75C18.75 6.94891 18.829 7.13968 18.9697 7.28033C19.1103 7.42098 19.3011 7.5 19.5 7.5Z" fill="#333333"/>
</svg>
