<svg width="20" height="20" viewBox="0 0 20 20" fill="none" xmlns="http://www.w3.org/2000/svg">
<path d="M15.5 9.00104H5.61667L8.64167 5.36771C8.78312 5.19753 8.85117 4.97813 8.83085 4.75777C8.81053 4.53742 8.70351 4.33416 8.53333 4.19271C8.36315 4.05126 8.14375 3.98321 7.9234 4.00353C7.70304 4.02384 7.49978 4.13086 7.35833 4.30104L3.19167 9.30104C3.16363 9.34081 3.13857 9.38259 3.11667 9.42604C3.11667 9.46771 3.11667 9.49271 3.05833 9.53438C3.02056 9.62993 3.00078 9.73164 3 9.83438C3.00078 9.93712 3.02056 10.0388 3.05833 10.1344C3.05833 10.176 3.05833 10.201 3.11667 10.2427C3.13857 10.2862 3.16363 10.3279 3.19167 10.3677L7.35833 15.3677C7.43668 15.4618 7.5348 15.5374 7.6457 15.5893C7.75661 15.6411 7.87757 15.6679 8 15.6677C8.19471 15.6681 8.38341 15.6003 8.53333 15.476C8.61772 15.4061 8.68747 15.3202 8.73859 15.2232C8.78972 15.1263 8.82122 15.0202 8.83128 14.911C8.84134 14.8019 8.82977 14.6918 8.79724 14.5871C8.7647 14.4825 8.71183 14.3853 8.64167 14.301L5.61667 10.6677H15.5C15.721 10.6677 15.933 10.5799 16.0893 10.4236C16.2455 10.2674 16.3333 10.0554 16.3333 9.83438C16.3333 9.61336 16.2455 9.4014 16.0893 9.24512C15.933 9.08884 15.721 9.00104 15.5 9.00104Z" fill="#333333"/>
</svg>
