<svg width="70" height="51" viewBox="0 0 70 51" fill="none" xmlns="http://www.w3.org/2000/svg">
<path d="M0 0.5H65C67.7614 0.5 70 2.73858 70 5.5V45.5C70 48.2614 67.7614 50.5 65 50.5H0V0.5Z" fill="#D982AA"/>
<path d="M46.8751 16.8634H43.5417V19.1361C43.5417 19.355 43.4943 19.5717 43.4022 19.7739C43.31 19.9761 43.175 20.1598 43.0047 20.3146C42.8345 20.4694 42.6324 20.5921 42.41 20.6759C42.1875 20.7597 41.9491 20.8028 41.7084 20.8028C41.4676 20.8028 41.2292 20.7597 41.0068 20.6759C40.7844 20.5921 40.5823 20.4694 40.412 20.3146C40.2418 20.1598 40.1067 19.9761 40.0146 19.7739C39.9225 19.5717 39.8751 19.355 39.8751 19.1361V16.8634H30.1667V19.1361C30.1667 19.5781 29.9736 20.002 29.6297 20.3146C29.2859 20.6272 28.8196 20.8028 28.3334 20.8028C27.8472 20.8028 27.3808 20.6272 27.037 20.3146C26.6932 20.002 26.5001 19.5781 26.5001 19.1361V16.8634H23.1667C22.9684 16.8613 22.7717 16.8954 22.5881 16.9637C22.4045 17.032 22.2379 17.133 22.0981 17.2609C21.9582 17.3887 21.848 17.5408 21.7739 17.708C21.6998 17.8753 21.6634 18.0543 21.6667 18.2346V35.1891C21.6634 35.3662 21.6985 35.5422 21.77 35.7069C21.8415 35.8717 21.948 36.022 22.0834 36.1494C22.2189 36.2767 22.3806 36.3785 22.5593 36.449C22.738 36.5196 22.9302 36.5574 23.1251 36.5603H46.8751C47.0699 36.5574 47.2621 36.5196 47.4408 36.449C47.6196 36.3785 47.7812 36.2767 47.9167 36.1494C48.0521 36.022 48.1586 35.8717 48.2301 35.7069C48.3016 35.5422 48.3367 35.3662 48.3334 35.1891V18.2346C48.3367 18.0575 48.3016 17.8815 48.2301 17.7168C48.1586 17.552 48.0521 17.4017 47.9167 17.2743C47.7812 17.147 47.6196 17.0452 47.4408 16.9747C47.2621 16.9041 47.0699 16.8663 46.8751 16.8634V16.8634ZM28.3334 32.0149H26.6667V30.4997H28.3334V32.0149ZM28.3334 28.227H26.6667V26.7119H28.3334V28.227ZM28.3334 24.4391H26.6667V22.924H28.3334V24.4391ZM33.3334 32.0149H31.6667V30.4997H33.3334V32.0149ZM33.3334 28.227H31.6667V26.7119H33.3334V28.227ZM33.3334 24.4391H31.6667V22.924H33.3334V24.4391ZM38.3334 32.0149H36.6667V30.4997H38.3334V32.0149ZM38.3334 28.227H36.6667V26.7119H38.3334V28.227ZM38.3334 24.4391H36.6667V22.924H38.3334V24.4391ZM43.3334 32.0149H41.6667V30.4997H43.3334V32.0149ZM43.3334 28.227H41.6667V26.7119H43.3334V28.227ZM43.3334 24.4391H41.6667V22.924H43.3334V24.4391Z" fill="white"/>
<path d="M28.3333 19.8946C28.5543 19.8946 28.7663 19.8148 28.9226 19.6727C29.0789 19.5306 29.1667 19.3379 29.1667 19.137V14.5916C29.1667 14.3906 29.0789 14.1979 28.9226 14.0559C28.7663 13.9138 28.5543 13.834 28.3333 13.834C28.1123 13.834 27.9004 13.9138 27.7441 14.0559C27.5878 14.1979 27.5 14.3906 27.5 14.5916V19.137C27.5 19.3379 27.5878 19.5306 27.7441 19.6727C27.9004 19.8148 28.1123 19.8946 28.3333 19.8946Z" fill="white"/>
<path d="M41.6667 19.8946C41.8877 19.8946 42.0997 19.8148 42.256 19.6727C42.4122 19.5306 42.5 19.3379 42.5 19.137V14.5916C42.5 14.3906 42.4122 14.1979 42.256 14.0559C42.0997 13.9138 41.8877 13.834 41.6667 13.834C41.4457 13.834 41.2337 13.9138 41.0775 14.0559C40.9212 14.1979 40.8334 14.3906 40.8334 14.5916V19.137C40.8334 19.3379 40.9212 19.5306 41.0775 19.6727C41.2337 19.8148 41.4457 19.8946 41.6667 19.8946Z" fill="white"/>
</svg>
