<svg width="24" height="24" viewBox="0 0 24 24" fill="none" xmlns="http://www.w3.org/2000/svg">
<path d="M12 22C11.4694 21.9974 10.9612 21.7862 10.5851 21.4119C10.209 21.0377 9.99525 20.5305 9.99 20H13.99C13.9924 20.2673 13.9418 20.5324 13.841 20.78C13.7116 21.0767 13.5136 21.3384 13.2632 21.5436C13.0129 21.7487 12.7173 21.8914 12.401 21.96H12.355C12.2381 21.9842 12.1193 21.9976 12 22ZM20 19H4V17L6 16V10.5C5.94732 9.08912 6.26594 7.68913 6.924 6.44C7.24784 5.86727 7.68943 5.36971 8.21965 4.98015C8.74987 4.59058 9.35666 4.31787 10 4.18V2H14V4.18C16.579 4.794 18 7.038 18 10.5V16L20 17V19ZM21.97 10H19.97C19.924 8.72275 19.5963 7.47145 19.0102 6.33565C18.4241 5.19985 17.5943 4.20763 16.58 3.43L18 2C19.1961 2.93048 20.1625 4.12311 20.825 5.486C21.51 6.89703 21.8996 8.43307 21.97 10ZM4 10H2C2.07 8.433 2.46 6.897 3.145 5.486C3.80746 4.12311 4.77395 2.93048 5.97 2L7.39 3.43C6.37561 4.20754 5.54568 5.19974 4.95961 6.33555C4.37355 7.47137 4.04586 8.72272 4 10Z" fill="#333333"/>
</svg>
