<svg width="48" height="48" viewBox="0 0 48 48" fill="none" xmlns="http://www.w3.org/2000/svg">
<path d="M25.5 23.2501L24.75 11.4361C24.75 11.0383 24.592 10.6567 24.3107 10.3754C24.0294 10.0941 23.6478 9.93608 23.25 9.93608C22.8522 9.93608 22.4707 10.0941 22.1894 10.3754C21.9081 10.6567 21.75 11.0383 21.75 11.4361L21.0525 22.4506L16.5465 25.3906C16.202 25.5897 15.9507 25.9175 15.8479 26.3019C15.7451 26.6863 15.7992 27.0958 15.9983 27.4403C16.1974 27.7848 16.5252 28.0362 16.9096 28.139C17.294 28.2418 17.7035 28.1877 18.048 27.9886L23.007 25.4716C23.088 25.4836 23.169 25.4986 23.2545 25.4986C24.4995 25.4986 25.5045 24.4936 25.5045 23.2486L25.5 23.2501ZM36.567 23.2501C36.567 22.4251 35.895 21.7501 35.067 21.7501C34.7703 21.7501 34.4803 21.8381 34.2337 22.0029C33.987 22.1677 33.7947 22.402 33.6812 22.6761C33.5677 22.9501 33.538 23.2517 33.5958 23.5427C33.6537 23.8337 33.7966 24.101 34.0064 24.3107C34.2161 24.5205 34.4834 24.6634 34.7744 24.7213C35.0654 24.7791 35.367 24.7494 35.641 24.6359C35.9151 24.5224 36.1494 24.3301 36.3142 24.0834C36.479 23.8368 36.567 23.5468 36.567 23.2501ZM9.93602 23.2501C9.93642 23.6483 10.095 24.0301 10.3769 24.3114C10.6587 24.5927 11.0408 24.7505 11.439 24.7501C11.8372 24.7497 12.219 24.5911 12.5003 24.3092C12.7816 24.0274 12.9394 23.6453 12.939 23.2471C12.9386 22.8489 12.78 22.4671 12.4982 22.1858C12.2163 21.9045 11.8342 21.7467 11.436 21.7471C11.0378 21.7475 10.656 21.9061 10.3747 22.1879C10.0934 22.4698 9.93562 22.8519 9.93602 23.2501ZM21.7515 35.0656C21.7423 35.268 21.7741 35.4702 21.8451 35.66C21.9162 35.8497 22.0249 36.0231 22.1648 36.1697C22.3047 36.3163 22.4728 36.433 22.6591 36.5129C22.8453 36.5927 23.0458 36.6339 23.2484 36.6341C23.4511 36.6343 23.6516 36.5935 23.838 36.514C24.0245 36.4346 24.1928 36.3182 24.333 36.1719C24.4732 36.0256 24.5823 35.8524 24.6537 35.6628C24.7251 35.4731 24.7574 35.271 24.7485 35.0686C24.7316 34.6827 24.5666 34.3183 24.2877 34.0511C24.0089 33.7839 23.6377 33.6345 23.2515 33.6341C22.8652 33.6337 22.4938 33.7823 22.2144 34.049C21.935 34.3156 21.7692 34.6798 21.7515 35.0656ZM43.0095 21.1306L38.1045 19.3516C38.5395 21.0106 38.7195 22.7641 38.5695 24.5716C37.83 33.0286 30.3945 39.2836 21.9315 38.5696C17.8708 38.2159 14.1162 36.2658 11.4917 33.1472C8.86709 30.0285 7.58691 25.996 7.93202 21.9346C8.67152 13.4746 16.104 7.21658 24.564 7.93208C28.0574 8.23845 31.3386 9.73918 33.855 12.1816L31.3995 14.2471L41.9445 18.0691L39.9825 7.02308L37.3275 9.26258C34.1265 6.03758 29.832 3.86708 24.9525 3.44708C14.0175 2.50808 4.38752 10.6111 3.44252 21.5491C2.50502 32.4841 10.608 42.1141 21.5415 43.0591C32.481 43.9951 42.111 35.8936 43.0545 24.9586C43.1655 23.6596 43.14 22.3816 43.0095 21.1336V21.1306Z" fill="#2C333A"/>
</svg>
