<svg width="35" height="35" viewBox="0 0 35 35" fill="none" xmlns="http://www.w3.org/2000/svg">
<path d="M18.5937 16.9527L18.0468 8.33828C18.0468 8.0482 17.9316 7.77 17.7265 7.56488C17.5214 7.35976 17.2432 7.24453 16.9531 7.24453C16.663 7.24453 16.3848 7.35976 16.1797 7.56488C15.9746 7.77 15.8593 8.0482 15.8593 8.33828L15.3507 16.3697L12.0651 18.5134C11.8139 18.6586 11.6307 18.8977 11.5557 19.1779C11.4807 19.4582 11.5202 19.7568 11.6653 20.008C11.8105 20.2593 12.0496 20.4425 12.3299 20.5175C12.6102 20.5924 12.9087 20.553 13.16 20.4078L16.7759 18.5725C16.835 18.5812 16.894 18.5922 16.9564 18.5922C17.8642 18.5922 18.597 17.8594 18.597 16.9516L18.5937 16.9527ZM26.6634 16.9527C26.6634 16.3511 26.1734 15.8589 25.5696 15.8589C25.3533 15.8589 25.1419 15.9231 24.962 16.0432C24.7821 16.1634 24.6419 16.3342 24.5592 16.5341C24.4764 16.734 24.4547 16.9539 24.4969 17.166C24.5391 17.3782 24.6433 17.5731 24.7962 17.7261C24.9492 17.879 25.1441 17.9832 25.3563 18.0254C25.5684 18.0676 25.7884 18.0459 25.9882 17.9631C26.1881 17.8804 26.3589 17.7402 26.4791 17.5603C26.5992 17.3804 26.6634 17.169 26.6634 16.9527ZM7.24496 16.9527C7.24525 17.243 7.36088 17.5214 7.5664 17.7265C7.77193 17.9316 8.05052 18.0467 8.3409 18.0464C8.63127 18.0461 8.90963 17.9305 9.11475 17.725C9.31986 17.5194 9.43494 17.2408 9.43465 16.9505C9.43436 16.6601 9.31873 16.3817 9.1132 16.1766C8.90767 15.9715 8.62908 15.8564 8.33871 15.8567C8.04834 15.857 7.76998 15.9726 7.56486 16.1782C7.35974 16.3837 7.24467 16.6623 7.24496 16.9527ZM15.8604 25.5681C15.8537 25.7157 15.8769 25.8632 15.9287 26.0015C15.9805 26.1399 16.0598 26.2663 16.1618 26.3732C16.2638 26.4801 16.3864 26.5652 16.5222 26.6234C16.658 26.6816 16.8042 26.7117 16.9519 26.7119C17.0997 26.712 17.2459 26.6822 17.3819 26.6243C17.5178 26.5664 17.6406 26.4815 17.7428 26.3748C17.845 26.2681 17.9245 26.1418 17.9766 26.0036C18.0287 25.8653 18.0522 25.7179 18.0457 25.5703C18.0334 25.289 17.9131 25.0232 17.7097 24.8284C17.5064 24.6335 17.2357 24.5246 16.9541 24.5244C16.6725 24.5241 16.4016 24.6324 16.1979 24.8269C15.9942 25.0213 15.8733 25.2868 15.8604 25.5681ZM31.3611 15.4072L27.7845 14.11C28.1017 15.3197 28.2329 16.5983 28.1236 17.9162C27.5843 24.0828 22.1626 28.6438 15.9917 28.1231C13.0307 27.8653 10.293 26.4433 8.37928 24.1693C6.46553 21.8953 5.53206 18.9549 5.78371 15.9934C6.32293 9.82468 11.7425 5.26156 17.9112 5.78328C20.4585 6.00667 22.851 7.10096 24.6859 8.88187L22.8954 10.388L30.5845 13.1748L29.1539 5.12046L27.2179 6.75343C24.8839 4.40187 21.7525 2.81921 18.1945 2.51296C10.2211 1.82828 3.19918 7.73671 2.51011 15.7123C1.82652 23.6858 7.73496 30.7077 15.7073 31.3967C23.684 32.0792 30.7059 26.1719 31.3939 18.1984C31.4748 17.2512 31.4562 16.3194 31.3611 15.4094V15.4072Z" fill="#2C333A" fill-opacity="0.8"/>
</svg>
