<svg width="24" height="24" viewBox="0 0 24 24" fill="none" xmlns="http://www.w3.org/2000/svg">
<path d="M8.94995 8.60078C8.95101 6.86394 9.64144 5.19854 10.8696 3.9704C12.0977 2.74227 13.7631 2.05184 15.5 2.05078C19.096 2.05078 22.0499 4.86978 22.0499 8.50078C22.0489 10.2376 21.3585 11.903 20.1303 13.1312C18.9022 14.3593 17.2368 15.0497 15.5 15.0508C14.969 15.0508 14.445 14.9748 13.948 14.8468C13.9361 15.1699 13.7994 15.4759 13.5667 15.7004C13.334 15.9249 13.0233 16.0505 12.7 16.0508H10.95V17.8008C10.95 18.4908 10.39 19.0508 9.69995 19.0508H7.94995V20.3008C7.94995 20.7649 7.76558 21.21 7.43739 21.5382C7.1092 21.8664 6.66408 22.0508 6.19995 22.0508H3.69995C3.23582 22.0508 2.7907 21.8664 2.46251 21.5382C2.13433 21.21 1.94995 20.7649 1.94995 20.3008V18.1288C1.94995 17.3988 2.23995 16.6998 2.75595 16.1848L8.98995 9.94878C9.02036 9.91673 9.0426 9.87781 9.05479 9.83534C9.06697 9.79287 9.06875 9.74808 9.05995 9.70478C8.99133 9.34067 8.95452 8.97128 8.94995 8.60078ZM18.25 7.00078C18.25 6.66926 18.1183 6.35132 17.8838 6.1169C17.6494 5.88248 17.3315 5.75078 17 5.75078C16.6684 5.75078 16.3505 5.88248 16.1161 6.1169C15.8816 6.35132 15.75 6.66926 15.75 7.00078C15.75 7.3323 15.8816 7.65024 16.1161 7.88466C16.3505 8.11908 16.6684 8.25078 17 8.25078C17.3315 8.25078 17.6494 8.11908 17.8838 7.88466C18.1183 7.65024 18.25 7.3323 18.25 7.00078Z" fill="#333333"/>
</svg>
