<svg width="25" height="25" viewBox="0 0 25 25" fill="none" xmlns="http://www.w3.org/2000/svg">
<path d="M16.146 1.04102H7.81266C7.12199 1.04102 6.45961 1.31538 5.97124 1.80376C5.48286 2.29213 5.2085 2.95451 5.2085 3.64518V21.3535C5.2085 22.0442 5.48286 22.7066 5.97124 23.1949C6.45961 23.6833 7.12199 23.9577 7.81266 23.9577H16.146C16.8367 23.9577 17.499 23.6833 17.9874 23.1949C18.4758 22.7066 18.7502 22.0442 18.7502 21.3535V3.64518C18.7502 2.95451 18.4758 2.29213 17.9874 1.80376C17.499 1.31538 16.8367 1.04102 16.146 1.04102ZM11.9793 22.916C11.1147 22.916 10.4168 22.2181 10.4168 21.3535C10.4168 20.4889 11.1147 19.791 11.9793 19.791C12.8439 19.791 13.5418 20.4889 13.5418 21.3535C13.5418 22.2181 12.8439 22.916 11.9793 22.916ZM16.6668 18.7493H7.29183V4.16602H16.6668V18.7493Z" fill="#333333"/>
</svg>
