<svg width="23" height="22" viewBox="0 0 23 22" fill="none" xmlns="http://www.w3.org/2000/svg">
<g clip-path="url(#clip0_668_2213)">
<path d="M12.9927 6.87519L15.7427 9.62519L10.2427 15.1252L7.49271 12.3752L12.9927 6.87519ZM22.1351 6.39256L20.5552 4.81269L19.8677 5.50019C19.6881 5.68486 19.4735 5.83198 19.2365 5.93302C18.9996 6.03405 18.7449 6.08698 18.4872 6.08873C18.2296 6.09048 17.9742 6.04101 17.7359 5.9432C17.4976 5.84539 17.281 5.70119 17.0989 5.51898C16.9168 5.33676 16.7727 5.12017 16.675 4.88179C16.5773 4.6434 16.528 4.38798 16.5299 4.13036C16.5317 3.87275 16.5848 3.61807 16.6859 3.38114C16.7871 3.1442 16.9343 2.92973 17.1191 2.75019L17.8066 2.06269L16.2267 0.482815C15.9155 0.17357 15.4946 0 15.0559 0C14.6172 0 14.1963 0.17357 13.8851 0.482815L1.10171 13.2662C0.792466 13.5774 0.618896 13.9983 0.618896 14.437C0.618896 14.8757 0.792466 15.2966 1.10171 15.6078L2.68159 17.1877L3.36771 16.5016C3.54725 16.3168 3.76172 16.1696 3.99866 16.0684C4.23559 15.9673 4.49027 15.9142 4.74789 15.9123C5.0055 15.9105 5.26092 15.9598 5.49931 16.0575C5.73769 16.1552 5.95428 16.2993 6.1365 16.4814C6.31871 16.6635 6.46291 16.88 6.56072 17.1184C6.65853 17.3567 6.708 17.6121 6.70625 17.8697C6.70451 18.1273 6.65158 18.382 6.55054 18.619C6.44951 18.856 6.30238 19.0706 6.11771 19.2502L5.43021 19.9377L7.01009 21.5176C7.32128 21.8268 7.74218 22.0004 8.1809 22.0004C8.61962 22.0004 9.04052 21.8268 9.35171 21.5176L22.1351 8.73419C22.4443 8.423 22.6179 8.0021 22.6179 7.56338C22.6179 7.12466 22.4443 6.70376 22.1351 6.39256ZM10.2427 17.8752L4.74271 12.3752L12.9927 4.12519L18.4927 9.62519L10.2427 17.8752Z" fill="#2C333A" fill-opacity="0.8"/>
</g>
<defs>
<clipPath id="clip0_668_2213">
<rect width="22" height="22" fill="white" transform="translate(0.617676)"/>
</clipPath>
</defs>
</svg>
