<svg width="27" height="27" viewBox="0 0 27 27" fill="none" xmlns="http://www.w3.org/2000/svg">
<path d="M15.5473 24.75H11.4523C11.1957 24.75 10.9468 24.6624 10.7469 24.5015C10.547 24.3407 10.4081 24.1164 10.3532 23.8658L9.89531 21.7463C9.2845 21.4786 8.70532 21.1439 8.16843 20.7484L6.10181 21.4065C5.85719 21.4845 5.59325 21.4765 5.35382 21.3838C5.11439 21.2911 4.91387 21.1193 4.78556 20.8969L2.73356 17.352C2.6066 17.1294 2.55894 16.8703 2.59838 16.6171C2.63782 16.3639 2.76203 16.1316 2.95068 15.9581L4.55381 14.4956C4.48091 13.8331 4.48091 13.1646 4.55381 12.5021L2.95068 11.043C2.76176 10.8695 2.63739 10.637 2.59794 10.3835C2.55849 10.1301 2.60631 9.87072 2.73356 9.648L4.78106 6.10087C4.90937 5.87848 5.10989 5.70666 5.34932 5.61396C5.58875 5.52126 5.85269 5.51324 6.09731 5.59125L8.16393 6.24937C8.43843 6.04687 8.72418 5.85787 9.01893 5.68687C9.30356 5.52712 9.59606 5.382 9.89531 5.25263L10.3543 3.13537C10.409 2.88472 10.5476 2.66027 10.7473 2.49924C10.947 2.33821 11.1958 2.25027 11.4523 2.25H15.5473C15.8038 2.25027 16.0526 2.33821 16.2523 2.49924C16.452 2.66027 16.5907 2.88472 16.6453 3.13537L17.1088 5.25375C17.4238 5.39325 17.7321 5.54962 18.0302 5.724C18.3081 5.88487 18.5769 6.0615 18.8357 6.25163L20.9034 5.5935C21.1479 5.51578 21.4116 5.52394 21.6508 5.61663C21.89 5.70932 22.0903 5.88097 22.2186 6.10313L24.2661 9.65025C24.5271 10.1081 24.4371 10.6875 24.0489 11.0441L22.4458 12.5066C22.5187 13.1691 22.5187 13.8376 22.4458 14.5001L24.0489 15.9626C24.4371 16.3204 24.5271 16.8986 24.2661 17.3565L22.2186 20.9036C22.0903 21.126 21.8897 21.2978 21.6503 21.3905C21.4109 21.4832 21.1469 21.4913 20.9023 21.4132L18.8357 20.7551C18.2992 21.1504 17.7204 21.4847 17.1099 21.7519L16.6453 23.8658C16.5904 24.1162 16.4517 24.3404 16.252 24.5012C16.0523 24.662 15.8037 24.7498 15.5473 24.75ZM13.4953 9C12.3018 9 11.1572 9.47411 10.3133 10.318C9.46941 11.1619 8.99531 12.3065 8.99531 13.5C8.99531 14.6935 9.46941 15.8381 10.3133 16.682C11.1572 17.5259 12.3018 18 13.4953 18C14.6888 18 15.8334 17.5259 16.6773 16.682C17.5212 15.8381 17.9953 14.6935 17.9953 13.5C17.9953 12.3065 17.5212 11.1619 16.6773 10.318C15.8334 9.47411 14.6888 9 13.4953 9Z" fill="#333333"/>
</svg>
