<svg width="27" height="27" viewBox="0 0 27 27" fill="none" xmlns="http://www.w3.org/2000/svg">
<path d="M24.6602 7.4475C24.546 7.17261 24.3276 6.95416 24.0527 6.84C23.9174 6.78235 23.7722 6.75178 23.6252 6.75H18.0002C17.7018 6.75 17.4157 6.86853 17.2047 7.07951C16.9937 7.29048 16.8752 7.57663 16.8752 7.875C16.8752 8.17337 16.9937 8.45952 17.2047 8.67049C17.4157 8.88147 17.7018 9 18.0002 9H20.9139L14.6252 15.2887L10.9239 11.5762C10.8193 11.4708 10.6949 11.3871 10.5578 11.33C10.4207 11.2729 10.2737 11.2435 10.1252 11.2435C9.97666 11.2435 9.82962 11.2729 9.69253 11.33C9.55544 11.3871 9.43101 11.4708 9.32643 11.5762L2.57643 18.3263C2.47098 18.4308 2.38729 18.5553 2.33017 18.6923C2.27306 18.8294 2.24365 18.9765 2.24365 19.125C2.24365 19.2735 2.27306 19.4206 2.33017 19.5576C2.38729 19.6947 2.47098 19.8192 2.57643 19.9237C2.68101 20.0292 2.80544 20.1129 2.94253 20.17C3.07962 20.2271 3.22666 20.2565 3.37518 20.2565C3.52369 20.2565 3.67073 20.2271 3.80782 20.17C3.94492 20.1129 4.06934 20.0292 4.17393 19.9237L10.1252 13.9612L13.8264 17.6737C13.931 17.7792 14.0554 17.8629 14.1925 17.92C14.3296 17.9771 14.4767 18.0065 14.6252 18.0065C14.7737 18.0065 14.9207 17.9771 15.0578 17.92C15.1949 17.8629 15.3193 17.7792 15.4239 17.6737L22.5002 10.5862V13.5C22.5002 13.7984 22.6187 14.0845 22.8297 14.2955C23.0407 14.5065 23.3268 14.625 23.6252 14.625C23.9235 14.625 24.2097 14.5065 24.4207 14.2955C24.6317 14.0845 24.7502 13.7984 24.7502 13.5V7.875C24.7484 7.72799 24.7178 7.58275 24.6602 7.4475Z" fill="#333333"/>
</svg>
