<svg width="17" height="17" viewBox="0 0 17 17" fill="none" xmlns="http://www.w3.org/2000/svg">
<path d="M8.5 9.16797C9.60457 9.16797 10.5 8.27254 10.5 7.16797C10.5 6.0634 9.60457 5.16797 8.5 5.16797C7.39543 5.16797 6.5 6.0634 6.5 7.16797C6.5 8.27254 7.39543 9.16797 8.5 9.16797Z" stroke="#333333" stroke-opacity="0.9" stroke-width="1.5" stroke-linecap="round" stroke-linejoin="round"/>
<path d="M8.50008 1.83398C7.08559 1.83398 5.72904 2.39589 4.72884 3.39608C3.72865 4.39628 3.16675 5.75283 3.16675 7.16732C3.16675 8.42865 3.43475 9.25398 4.16675 10.1673L8.50008 15.1673L12.8334 10.1673C13.5654 9.25398 13.8334 8.42865 13.8334 7.16732C13.8334 5.75283 13.2715 4.39628 12.2713 3.39608C11.2711 2.39589 9.91457 1.83398 8.50008 1.83398V1.83398Z" stroke="#333333" stroke-opacity="0.9" stroke-width="1.5" stroke-linecap="round" stroke-linejoin="round"/>
</svg>
