<svg width="45" height="45" viewBox="0 0 45 45" fill="none" xmlns="http://www.w3.org/2000/svg">
<rect width="45" height="45" rx="5" fill="#D982AA"/>
<path d="M16.7708 13.125C15.8039 13.125 14.8766 13.5091 14.1928 14.1928C13.5091 14.8766 13.125 15.8039 13.125 16.7708V18.7125C13.125 18.9888 13.2347 19.2537 13.4301 19.4491C13.6254 19.6444 13.8904 19.7542 14.1667 19.7542C14.4429 19.7542 14.7079 19.6444 14.9032 19.4491C15.0986 19.2537 15.2083 18.9888 15.2083 18.7125V16.7708C15.2083 16.3564 15.373 15.959 15.666 15.666C15.959 15.373 16.3564 15.2083 16.7708 15.2083H18.7125C18.9888 15.2083 19.2537 15.0986 19.4491 14.9032C19.6444 14.7079 19.7542 14.4429 19.7542 14.1667C19.7542 13.8904 19.6444 13.6254 19.4491 13.4301C19.2537 13.2347 18.9888 13.125 18.7125 13.125H16.7708ZM26.2875 13.125C26.0112 13.125 25.7463 13.2347 25.5509 13.4301C25.3556 13.6254 25.2458 13.8904 25.2458 14.1667C25.2458 14.4429 25.3556 14.7079 25.5509 14.9032C25.7463 15.0986 26.0112 15.2083 26.2875 15.2083H28.2292C28.6436 15.2083 29.041 15.373 29.334 15.666C29.627 15.959 29.7917 16.3564 29.7917 16.7708V18.7125C29.7917 18.9888 29.9014 19.2537 30.0968 19.4491C30.2921 19.6444 30.5571 19.7542 30.8333 19.7542C31.1096 19.7542 31.3746 19.6444 31.5699 19.4491C31.7653 19.2537 31.875 18.9888 31.875 18.7125V16.7708C31.875 15.8039 31.4909 14.8766 30.8072 14.1928C30.1234 13.5091 29.1961 13.125 28.2292 13.125H26.2875ZM15.2083 26.2875C15.2083 26.0112 15.0986 25.7463 14.9032 25.5509C14.7079 25.3556 14.4429 25.2458 14.1667 25.2458C13.8904 25.2458 13.6254 25.3556 13.4301 25.5509C13.2347 25.7463 13.125 26.0112 13.125 26.2875V28.2292C13.125 29.1961 13.5091 30.1234 14.1928 30.8072C14.8766 31.4909 15.8039 31.875 16.7708 31.875H18.7125C18.9888 31.875 19.2537 31.7653 19.4491 31.5699C19.6444 31.3746 19.7542 31.1096 19.7542 30.8333C19.7542 30.5571 19.6444 30.2921 19.4491 30.0968C19.2537 29.9014 18.9888 29.7917 18.7125 29.7917H16.7708C16.3564 29.7917 15.959 29.627 15.666 29.334C15.373 29.041 15.2083 28.6436 15.2083 28.2292V26.2875ZM31.875 26.2875C31.875 26.0112 31.7653 25.7463 31.5699 25.5509C31.3746 25.3556 31.1096 25.2458 30.8333 25.2458C30.5571 25.2458 30.2921 25.3556 30.0968 25.5509C29.9014 25.7463 29.7917 26.0112 29.7917 26.2875V28.2292C29.7917 28.6436 29.627 29.041 29.334 29.334C29.041 29.627 28.6436 29.7917 28.2292 29.7917H26.2875C26.0112 29.7917 25.7463 29.9014 25.5509 30.0968C25.3556 30.2921 25.2458 30.5571 25.2458 30.8333C25.2458 31.1096 25.3556 31.3746 25.5509 31.5699C25.7463 31.7653 26.0112 31.875 26.2875 31.875H28.2292C29.1961 31.875 30.1234 31.4909 30.8072 30.8072C31.4909 30.1234 31.875 29.1961 31.875 28.2292V26.2875ZM18.3333 21.4583C18.0571 21.4583 17.7921 21.5681 17.5968 21.7634C17.4014 21.9588 17.2917 22.2237 17.2917 22.5C17.2917 22.7763 17.4014 23.0412 17.5968 23.2366C17.7921 23.4319 18.0571 23.5417 18.3333 23.5417H26.6667C26.9429 23.5417 27.2079 23.4319 27.4032 23.2366C27.5986 23.0412 27.7083 22.7763 27.7083 22.5C27.7083 22.2237 27.5986 21.9588 27.4032 21.7634C27.2079 21.5681 26.9429 21.4583 26.6667 21.4583H18.3333Z" fill="white"/>
</svg>
