<svg width="49" height="52" viewBox="0 0 49 52" fill="none" xmlns="http://www.w3.org/2000/svg">
<g filter="url(#filter0_dd_318_1500)">
<rect x="4.5" y="6" width="40" height="40" rx="5" fill="white"/>
</g>
<path d="M25 36.5C26.375 36.5 27.5 35.375 27.5 34H22.5C22.5 35.375 23.625 36.5 25 36.5ZM30 26.25V23.375C30 21.125 28.5 19.125 26.25 18.5C26.375 18.25 26.375 18 26.5 17.875C26.375 17.125 25.75 16.5 25 16.5C24.25 16.5 23.625 17.125 23.625 17.875C23.625 18.125 23.75 18.375 23.875 18.5C21.625 19 20.125 21 20.125 23.375V26.125C20 27.625 19 29 17.625 29.625V32.75H32.625V29.625C31.125 29.125 30.125 27.75 30 26.25Z" fill="#333333" fill-opacity="0.8"/>
<defs>
<filter id="filter0_dd_318_1500" x="0.5" y="0" width="48" height="52" filterUnits="userSpaceOnUse" color-interpolation-filters="sRGB">
<feFlood flood-opacity="0" result="BackgroundImageFix"/>
<feColorMatrix in="SourceAlpha" type="matrix" values="0 0 0 0 0 0 0 0 0 0 0 0 0 0 0 0 0 0 127 0" result="hardAlpha"/>
<feOffset dy="2"/>
<feGaussianBlur stdDeviation="2"/>
<feComposite in2="hardAlpha" operator="out"/>
<feColorMatrix type="matrix" values="0 0 0 0 0 0 0 0 0 0 0 0 0 0 0 0 0 0 0.06 0"/>
<feBlend mode="normal" in2="BackgroundImageFix" result="effect1_dropShadow_318_1500"/>
<feColorMatrix in="SourceAlpha" type="matrix" values="0 0 0 0 0 0 0 0 0 0 0 0 0 0 0 0 0 0 127 0" result="hardAlpha"/>
<feOffset dy="-2"/>
<feGaussianBlur stdDeviation="2"/>
<feComposite in2="hardAlpha" operator="out"/>
<feColorMatrix type="matrix" values="0 0 0 0 0 0 0 0 0 0 0 0 0 0 0 0 0 0 0.06 0"/>
<feBlend mode="normal" in2="effect1_dropShadow_318_1500" result="effect2_dropShadow_318_1500"/>
<feBlend mode="normal" in="SourceGraphic" in2="effect2_dropShadow_318_1500" result="shape"/>
</filter>
</defs>
</svg>
