<svg width="28" height="27" viewBox="0 0 28 27" fill="none" xmlns="http://www.w3.org/2000/svg">
<path d="M5.42743 14.625H12.1774C12.4758 14.625 12.7619 14.5065 12.9729 14.2955C13.1839 14.0845 13.3024 13.7984 13.3024 13.5V4.5C13.3024 4.20163 13.1839 3.91548 12.9729 3.7045C12.7619 3.49353 12.4758 3.375 12.1774 3.375H5.42743C5.12906 3.375 4.84291 3.49353 4.63193 3.7045C4.42096 3.91548 4.30243 4.20163 4.30243 4.5V13.5C4.30243 13.7984 4.42096 14.0845 4.63193 14.2955C4.84291 14.5065 5.12906 14.625 5.42743 14.625ZM4.30243 22.5C4.30243 22.7984 4.42096 23.0845 4.63193 23.2955C4.84291 23.5065 5.12906 23.625 5.42743 23.625H12.1774C12.4758 23.625 12.7619 23.5065 12.9729 23.2955C13.1839 23.0845 13.3024 22.7984 13.3024 22.5V18C13.3024 17.7016 13.1839 17.4155 12.9729 17.2045C12.7619 16.9935 12.4758 16.875 12.1774 16.875H5.42743C5.12906 16.875 4.84291 16.9935 4.63193 17.2045C4.42096 17.4155 4.30243 17.7016 4.30243 18V22.5ZM15.5524 22.5C15.5524 22.7984 15.671 23.0845 15.8819 23.2955C16.0929 23.5065 16.3791 23.625 16.6774 23.625H23.4274C23.7258 23.625 24.0119 23.5065 24.2229 23.2955C24.4339 23.0845 24.5524 22.7984 24.5524 22.5V14.625C24.5524 14.3266 24.4339 14.0405 24.2229 13.8295C24.0119 13.6185 23.7258 13.5 23.4274 13.5H16.6774C16.3791 13.5 16.0929 13.6185 15.8819 13.8295C15.671 14.0405 15.5524 14.3266 15.5524 14.625V22.5ZM16.6774 11.25H23.4274C23.7258 11.25 24.0119 11.1315 24.2229 10.9205C24.4339 10.7095 24.5524 10.4234 24.5524 10.125V4.5C24.5524 4.20163 24.4339 3.91548 24.2229 3.7045C24.0119 3.49353 23.7258 3.375 23.4274 3.375H16.6774C16.3791 3.375 16.0929 3.49353 15.8819 3.7045C15.671 3.91548 15.5524 4.20163 15.5524 4.5V10.125C15.5524 10.4234 15.671 10.7095 15.8819 10.9205C16.0929 11.1315 16.3791 11.25 16.6774 11.25Z" fill="white"/>
</svg>
