<svg width="16" height="17" viewBox="0 0 16 17" fill="none" xmlns="http://www.w3.org/2000/svg">
<path d="M9.25 6C9.25 6.69036 8.69036 7.25 8 7.25C7.30964 7.25 6.75 6.69036 6.75 6C6.75 5.30964 7.30964 4.75 8 4.75C8.69036 4.75 9.25 5.30964 9.25 6Z" stroke="#333333" stroke-width="1.5" stroke-linecap="round" stroke-linejoin="round"/>
<path d="M11.3106 7.70456C10.5765 9.41764 9.59183 11.2652 8.78458 12.6935C8.49139 13.2122 8.22285 13.6734 8 14.05C7.77715 13.6734 7.50861 13.2122 7.21542 12.6935C6.40817 11.2652 5.42354 9.41764 4.68936 7.70456C3.41362 4.72785 5.5072 2.25 8 2.25C10.4928 2.25 12.5864 4.72785 11.3106 7.70456Z" stroke="#333333" stroke-width="1.5" stroke-linecap="round" stroke-linejoin="round"/>
</svg>
