<svg width="19" height="19" viewBox="0 0 19 19" fill="none" xmlns="http://www.w3.org/2000/svg">
<path d="M17.25 8.7511C17.0511 8.7511 16.8603 8.83012 16.7197 8.97077C16.579 9.11142 16.5 9.30219 16.5 9.5011C16.5089 10.9059 16.0277 12.2698 15.1392 13.3579C14.2508 14.4461 13.0106 15.1904 11.6325 15.4626C10.2543 15.7348 8.82434 15.5178 7.58888 14.8492C6.35342 14.1805 5.38981 13.102 4.86399 11.7993C4.33818 10.4966 4.2831 9.05134 4.70822 7.71241C5.13334 6.37348 6.01206 5.2247 7.19303 4.46393C8.374 3.70317 9.7833 3.37803 11.1782 3.54453C12.5731 3.71103 13.8663 4.35874 14.835 5.3761H13.035C12.8361 5.3761 12.6453 5.45512 12.5047 5.59577C12.364 5.73642 12.285 5.92719 12.285 6.1261C12.285 6.32501 12.364 6.51578 12.5047 6.65643C12.6453 6.79708 12.8361 6.8761 13.035 6.8761H16.4325C16.6314 6.8761 16.8222 6.79708 16.9628 6.65643C17.1035 6.51578 17.1825 6.32501 17.1825 6.1261V2.7511C17.1825 2.55219 17.1035 2.36142 16.9628 2.22077C16.8222 2.08012 16.6314 2.0011 16.4325 2.0011C16.2336 2.0011 16.0428 2.08012 15.9022 2.22077C15.7615 2.36142 15.6825 2.55219 15.6825 2.7511V4.0786C14.4335 2.88464 12.8106 2.15856 11.088 2.0231C9.36547 1.88763 7.64897 2.35108 6.22869 3.33512C4.80841 4.31915 3.77146 5.7634 3.29312 7.42374C2.81479 9.08408 2.92441 10.8587 3.60346 12.4475C4.28251 14.0363 5.48933 15.342 7.01993 16.1437C8.55052 16.9455 10.311 17.1942 12.0038 16.8477C13.6966 16.5013 15.2178 15.581 16.3104 14.2424C17.4029 12.9038 17.9998 11.229 18 9.5011C18 9.30219 17.921 9.11142 17.7803 8.97077C17.6397 8.83012 17.4489 8.7511 17.25 8.7511Z" fill="#333333"/>
</svg>
