<svg width="48" height="48" viewBox="0 0 48 48" fill="none" xmlns="http://www.w3.org/2000/svg">
<path d="M40.992 11.254C41.8714 11.563 42.6331 12.1375 43.1719 12.8981C43.7108 13.6587 44.0001 14.5679 44 15.5V35.5C44 37.7543 43.1045 39.9163 41.5104 41.5104C39.9163 43.1045 37.7543 44 35.5 44H15.5C14.5679 44.0001 13.6587 43.7108 12.8981 43.1719C12.1375 42.6331 11.563 41.8714 11.254 40.992L15.448 41H35.5C36.9587 41 38.3576 40.4205 39.3891 39.3891C40.4205 38.3576 41 36.9587 41 35.5V15.5L40.992 15.398V11.254ZM34.492 4C35.6855 4 36.8301 4.47411 37.674 5.31802C38.5179 6.16193 38.992 7.30653 38.992 8.5V34.494C38.992 35.6875 38.5179 36.8321 37.674 37.676C36.8301 38.5199 35.6855 38.994 34.492 38.994H8.5C7.30653 38.994 6.16193 38.5199 5.31802 37.676C4.47411 36.8321 4 35.6875 4 34.494V8.5C4 7.30653 4.47411 6.16193 5.31802 5.31802C6.16193 4.47411 7.30653 4 8.5 4H34.494H34.492Z" fill="#2C333A"/>
</svg>
