<svg width="49" height="48" viewBox="0 0 49 48" fill="none" xmlns="http://www.w3.org/2000/svg">
<path d="M33 25C27.48 25 23 29.48 23 35C23 40.52 27.48 45 33 45C38.52 45 43 40.52 43 35C43 29.48 38.52 25 33 25ZM36.3 39.7L32 35.4V29H34V34.58L37.7 38.28L36.3 39.7ZM35 7H28.64C27.8 4.68 25.6 3 23 3C20.4 3 18.2 4.68 17.36 7H11C8.8 7 7 8.8 7 11V41C7 43.2 8.8 45 11 45H23.22C22.0367 43.8515 21.0742 42.4958 20.38 41H11V11H15V17H31V11H35V21.16C36.42 21.36 37.76 21.78 39 22.36V11C39 8.8 37.2 7 35 7ZM23 11C21.9 11 21 10.1 21 9C21 7.9 21.9 7 23 7C24.1 7 25 7.9 25 9C25 10.1 24.1 11 23 11Z" fill="#2C333A"/>
</svg>
