<svg width="35" height="35" viewBox="0 0 35 35" fill="none" xmlns="http://www.w3.org/2000/svg">
<path d="M24.7917 17.5007C20.7667 17.5007 17.5 20.7673 17.5 24.7923C17.5 28.8173 20.7667 32.084 24.7917 32.084C28.8167 32.084 32.0834 28.8173 32.0834 24.7923C32.0834 20.7673 28.8167 17.5007 24.7917 17.5007ZM27.198 28.2194L24.0625 25.084V20.4173H25.5209V24.4861L28.2188 27.184L27.198 28.2194ZM26.25 4.37565H21.6125C21 2.68398 19.3959 1.45898 17.5 1.45898C15.6042 1.45898 14 2.68398 13.3875 4.37565H8.75004C7.14587 4.37565 5.83337 5.68815 5.83337 7.29232V29.1673C5.83337 30.7715 7.14587 32.084 8.75004 32.084H17.6605C16.7977 31.2465 16.0958 30.258 15.5896 29.1673H8.75004V7.29232H11.6667V11.6673H23.3334V7.29232H26.25V14.7007C27.2855 14.8465 28.2625 15.1527 29.1667 15.5757V7.29232C29.1667 5.68815 27.8542 4.37565 26.25 4.37565ZM17.5 7.29232C16.698 7.29232 16.0417 6.63607 16.0417 5.83398C16.0417 5.0319 16.698 4.37565 17.5 4.37565C18.3021 4.37565 18.9584 5.0319 18.9584 5.83398C18.9584 6.63607 18.3021 7.29232 17.5 7.29232Z" fill="#2C333A" fill-opacity="0.8"/>
</svg>
