<svg width="22" height="22" viewBox="0 0 22 22" fill="none" xmlns="http://www.w3.org/2000/svg">
<path d="M13 7.5625C13 8.66707 12.1046 9.5625 11 9.5625C9.89543 9.5625 9 8.66707 9 7.5625C9 6.45793 9.89543 5.5625 11 5.5625C12.1046 5.5625 13 6.45793 13 7.5625Z" stroke="#2C333A" stroke-opacity="0.8" stroke-width="1.5" stroke-linecap="round" stroke-linejoin="round"/>
<path d="M15.81 10.0171C14.7945 12.3864 13.4349 14.9371 12.323 16.9044C11.8059 17.8191 11.3445 18.6041 10.9993 19.1814C10.6541 18.6041 10.1927 17.8191 9.67567 16.9044C8.56373 14.9371 7.2041 12.3864 6.18867 10.0171C4.35044 5.72785 7.38152 2.125 10.9993 2.125C14.6171 2.125 17.6482 5.72785 15.81 10.0171Z" stroke="#2C333A" stroke-opacity="0.8" stroke-width="1.5" stroke-linecap="round" stroke-linejoin="round"/>
</svg>
