<svg width="22" height="22" viewBox="0 0 22 22" fill="none" xmlns="http://www.w3.org/2000/svg">
<path d="M17.4167 3.66634H16.5V2.74967C16.5 2.24551 16.0875 1.83301 15.5833 1.83301C15.0792 1.83301 14.6667 2.24551 14.6667 2.74967V3.66634H7.33333V2.74967C7.33333 2.24551 6.92083 1.83301 6.41667 1.83301C5.9125 1.83301 5.5 2.24551 5.5 2.74967V3.66634H4.58333C3.56583 3.66634 2.75917 4.49134 2.75917 5.49967L2.75 18.333C2.75 18.8192 2.94315 19.2856 3.28697 19.6294C3.63079 19.9732 4.0971 20.1663 4.58333 20.1663H17.4167C18.425 20.1663 19.25 19.3413 19.25 18.333V5.49967C19.25 4.49134 18.425 3.66634 17.4167 3.66634ZM17.4167 17.4163C17.4167 17.9205 17.0042 18.333 16.5 18.333H5.5C4.99583 18.333 4.58333 17.9205 4.58333 17.4163V8.24967H17.4167V17.4163ZM6.41667 10.083H8.25V11.9163H6.41667V10.083ZM10.0833 10.083H11.9167V11.9163H10.0833V10.083ZM13.75 10.083H15.5833V11.9163H13.75V10.083Z" fill="#2C333A" fill-opacity="0.8"/>
</svg>
