<svg width="22" height="22" viewBox="0 0 22 22" fill="none" xmlns="http://www.w3.org/2000/svg">
<g clip-path="url(#clip0_1092_936)">
<path d="M12.3758 6.87519L15.1258 9.62519L9.62577 15.1252L6.87577 12.3752L12.3758 6.87519ZM21.5181 6.39256L19.9383 4.81269L19.2508 5.50019C19.0711 5.68486 18.8566 5.83198 18.6196 5.93302C18.3826 6.03405 18.1279 6.08698 17.8703 6.08873C17.6127 6.09048 17.3573 6.04101 17.1189 5.9432C16.8806 5.84539 16.6641 5.70119 16.482 5.51897C16.2998 5.33676 16.1558 5.12017 16.0581 4.88179C15.9604 4.6434 15.911 4.38798 15.9129 4.13036C15.9148 3.87275 15.9678 3.61807 16.069 3.38113C16.1702 3.1442 16.3174 2.92973 16.5021 2.75019L17.1896 2.06269L15.6098 0.482815C15.2986 0.17357 14.8777 0 14.439 0C14.0002 0 13.5793 0.17357 13.2681 0.482815L0.484768 13.2662C0.175523 13.5774 0.00195313 13.9983 0.00195312 14.437C0.00195312 14.8757 0.175523 15.2966 0.484768 15.6078L2.06464 17.1877L2.75077 16.5016C2.93031 16.3168 3.14478 16.1696 3.38171 16.0684C3.61865 15.9673 3.87332 15.9142 4.13094 15.9123C4.38856 15.9105 4.64398 15.9598 4.88236 16.0575C5.12075 16.1552 5.33734 16.2993 5.51955 16.4814C5.70177 16.6635 5.84597 16.88 5.94378 17.1184C6.04159 17.3567 6.09106 17.6121 6.08931 17.8697C6.08756 18.1273 6.03463 18.382 5.9336 18.619C5.83256 18.856 5.68544 19.0706 5.50077 19.2502L4.81327 19.9377L6.39314 21.5176C6.70434 21.8268 7.12524 22.0004 7.56395 22.0004C8.00267 22.0004 8.42357 21.8268 8.73477 21.5176L21.5181 8.73419C21.8274 8.423 22.001 8.0021 22.001 7.56338C22.001 7.12466 21.8274 6.70376 21.5181 6.39256ZM9.62577 17.8752L4.12577 12.3752L12.3758 4.12519L17.8758 9.62519L9.62577 17.8752Z" fill="#2C333A" fill-opacity="0.8"/>
</g>
<defs>
<clipPath id="clip0_1092_936">
<rect width="22" height="22" fill="white"/>
</clipPath>
</defs>
</svg>
