<svg width="18" height="18" viewBox="0 0 18 18" fill="none" xmlns="http://www.w3.org/2000/svg">
<path d="M3.7367 5.39919C4.643 5.39919 5.3777 4.66449 5.3777 3.75819C5.3777 2.85189 4.643 2.11719 3.7367 2.11719C2.8304 2.11719 2.0957 2.85189 2.0957 3.75819C2.0957 4.66449 2.8304 5.39919 3.7367 5.39919Z" fill="#2C333A" fill-opacity="0.8"/>
<path d="M6.6065 5.225V14.3292H9.43325V9.827C9.43325 8.639 9.65675 7.4885 11.1297 7.4885C12.5825 7.4885 12.6005 8.84675 12.6005 9.902V14.33H15.4288V9.33725C15.4288 6.88475 14.9008 5 12.0343 5C10.658 5 9.7355 5.75525 9.35825 6.47H9.32V5.225H6.6065ZM2 5.225H4.83125V14.3292H2V5.225Z" fill="#2C333A" fill-opacity="0.8"/>
</svg>
