<svg width="18" height="18" viewBox="0 0 18 18" fill="none" xmlns="http://www.w3.org/2000/svg">
<g opacity="0.6">
<path d="M2.76906 4.719C3.82131 3.57825 5.41356 3 7.50081 3H8.25081V5.11425L7.64781 5.235C6.62031 5.4405 5.90556 5.84475 5.52306 6.438C5.32348 6.7576 5.21029 7.12353 5.19456 7.5H7.50081C7.69972 7.5 7.89049 7.57902 8.03114 7.71967C8.17179 7.86032 8.25081 8.05109 8.25081 8.25V13.5C8.25081 14.3273 7.57806 15 6.75081 15H2.25081C2.0519 15 1.86113 14.921 1.72048 14.7803C1.57983 14.6397 1.50081 14.4489 1.50081 14.25V10.5L1.50306 8.31075C1.49631 8.2275 1.35381 6.255 2.76906 4.719ZM15.0008 15H10.5008C10.3019 15 10.1111 14.921 9.97048 14.7803C9.82983 14.6397 9.75081 14.4489 9.75081 14.25V10.5L9.75306 8.31075C9.74631 8.2275 9.60381 6.255 11.0191 4.719C12.0713 3.57825 13.6636 3 15.7508 3H16.5008V5.11425L15.8978 5.235C14.8703 5.4405 14.1556 5.84475 13.7731 6.438C13.5735 6.7576 13.4603 7.12353 13.4446 7.5H15.7508C15.9497 7.5 16.1405 7.57902 16.2811 7.71967C16.4218 7.86032 16.5008 8.05109 16.5008 8.25V13.5C16.5008 14.3273 15.8281 15 15.0008 15Z" fill="#756C83"/>
</g>
</svg>
