<svg width="29" height="29" viewBox="0 0 29 29" fill="none" xmlns="http://www.w3.org/2000/svg">
<g clip-path="url(#clip0_361_7491)">
<path d="M19.4902 11.7734C19.4902 11.5414 19.5824 11.3188 19.7465 11.1547C19.9106 10.9906 20.1332 10.8984 20.3652 10.8984H22.1152C22.3473 10.8984 22.5699 10.9906 22.734 11.1547C22.898 11.3188 22.9902 11.5414 22.9902 11.7734V13.5234C22.9902 13.7555 22.898 13.9781 22.734 14.1422C22.5699 14.3063 22.3473 14.3984 22.1152 14.3984H20.3652C20.1332 14.3984 19.9106 14.3063 19.7465 14.1422C19.5824 13.9781 19.4902 13.7555 19.4902 13.5234V11.7734ZM14.2402 11.7734C14.2402 11.5414 14.3324 11.3188 14.4965 11.1547C14.6606 10.9906 14.8832 10.8984 15.1152 10.8984H16.8652C17.0973 10.8984 17.3199 10.9906 17.484 11.1547C17.648 11.3188 17.7402 11.5414 17.7402 11.7734V13.5234C17.7402 13.7555 17.648 13.9781 17.484 14.1422C17.3199 14.3063 17.0973 14.3984 16.8652 14.3984H15.1152C14.8832 14.3984 14.6606 14.3063 14.4965 14.1422C14.3324 13.9781 14.2402 13.7555 14.2402 13.5234V11.7734ZM5.49023 17.0234C5.49023 16.7914 5.58242 16.5688 5.74652 16.4047C5.91061 16.2406 6.13317 16.1484 6.36523 16.1484H8.11523C8.3473 16.1484 8.56986 16.2406 8.73395 16.4047C8.89805 16.5688 8.99023 16.7914 8.99023 17.0234V18.7734C8.99023 19.0055 8.89805 19.2281 8.73395 19.3922C8.56986 19.5563 8.3473 19.6484 8.11523 19.6484H6.36523C6.13317 19.6484 5.91061 19.5563 5.74652 19.3922C5.58242 19.2281 5.49023 19.0055 5.49023 18.7734V17.0234ZM10.7402 17.0234C10.7402 16.7914 10.8324 16.5688 10.9965 16.4047C11.1606 16.2406 11.3832 16.1484 11.6152 16.1484H13.3652C13.5973 16.1484 13.8199 16.2406 13.984 16.4047C14.148 16.5688 14.2402 16.7914 14.2402 17.0234V18.7734C14.2402 19.0055 14.148 19.2281 13.984 19.3922C13.8199 19.5563 13.5973 19.6484 13.3652 19.6484H11.6152C11.3832 19.6484 11.1606 19.5563 10.9965 19.3922C10.8324 19.2281 10.7402 19.0055 10.7402 18.7734V17.0234Z" fill="#2C333A" fill-opacity="0.8"/>
<path d="M6.36523 0.398438C6.5973 0.398438 6.81986 0.490625 6.98395 0.654719C7.14805 0.818813 7.24023 1.04137 7.24023 1.27344V2.14844H21.2402V1.27344C21.2402 1.04137 21.3324 0.818813 21.4965 0.654719C21.6606 0.490625 21.8832 0.398438 22.1152 0.398438C22.3473 0.398438 22.5699 0.490625 22.734 0.654719C22.898 0.818813 22.9902 1.04137 22.9902 1.27344V2.14844H24.7402C25.6685 2.14844 26.5587 2.51719 27.2151 3.17356C27.8715 3.82994 28.2402 4.72018 28.2402 5.64844V24.8984C28.2402 25.8267 27.8715 26.7169 27.2151 27.3733C26.5587 28.0297 25.6685 28.3984 24.7402 28.3984H3.74023C2.81198 28.3984 1.92174 28.0297 1.26536 27.3733C0.608983 26.7169 0.240234 25.8267 0.240234 24.8984V5.64844C0.240234 4.72018 0.608983 3.82994 1.26536 3.17356C1.92174 2.51719 2.81198 2.14844 3.74023 2.14844H5.49023V1.27344C5.49023 1.04137 5.58242 0.818813 5.74652 0.654719C5.91061 0.490625 6.13317 0.398438 6.36523 0.398438V0.398438ZM1.99023 7.39844V24.8984C1.99023 25.3626 2.17461 25.8077 2.5028 26.1359C2.83099 26.4641 3.27611 26.6484 3.74023 26.6484H24.7402C25.2044 26.6484 25.6495 26.4641 25.9777 26.1359C26.3059 25.8077 26.4902 25.3626 26.4902 24.8984V7.39844H1.99023Z" fill="#2C333A" fill-opacity="0.8"/>
</g>
<defs>
<clipPath id="clip0_361_7491">
<rect width="28" height="28" fill="white" transform="translate(0.240234 0.398438)"/>
</clipPath>
</defs>
</svg>
