<svg width="18" height="18" viewBox="0 0 18 18" fill="none" xmlns="http://www.w3.org/2000/svg">
<g clip-path="url(#clip0_366_8758)">
<path d="M17.6255 4.88006C17.5235 4.51649 17.325 4.18732 17.051 3.92756C16.7692 3.65982 16.4238 3.46829 16.0475 3.37106C14.639 2.99981 8.99596 2.99981 8.99596 2.99981C6.64346 2.97305 4.29153 3.09077 1.95346 3.35231C1.57711 3.45672 1.23239 3.65253 0.949963 3.92231C0.672463 4.18931 0.471463 4.51856 0.366463 4.87931C0.114233 6.23812 -0.0083181 7.61782 0.000462887 8.99981C-0.00853711 10.3806 0.113713 11.7598 0.366463 13.1203C0.469213 13.4796 0.669463 13.8073 0.947713 14.0721C1.22596 14.3368 1.57246 14.5281 1.95346 14.6293C3.38071 14.9998 8.99596 14.9998 8.99596 14.9998C11.3515 15.0266 13.7064 14.9089 16.0475 14.6473C16.4238 14.5501 16.7692 14.3586 17.051 14.0908C17.3285 13.8261 17.5257 13.4968 17.6247 13.1383C17.8835 11.78 18.0094 10.3998 18.0005 9.01706C18.0199 7.62852 17.8942 6.24174 17.6255 4.87931V4.88006ZM7.20196 11.5678V6.43256L11.897 9.00056L7.20196 11.5678Z" fill="#2C333A" fill-opacity="0.8"/>
</g>
<defs>
<clipPath id="clip0_366_8758">
<rect width="18" height="18" fill="white"/>
</clipPath>
</defs>
</svg>
